<svg id="visual" viewBox="0 0 900 300" width="900" height="300" xmlns="http://www.w3.org/2000/svg" xmlns:xlink="http://www.w3.org/1999/xlink" version="1.1"><rect x="0" y="0" width="900" height="300" fill="#0f0f10"></rect><path d="M0 204L21.5 199.8C43 195.7 86 187.3 128.8 184.8C171.7 182.3 214.3 185.7 257.2 188.8C300 192 343 195 385.8 199.8C428.7 204.7 471.3 211.3 514.2 212.3C557 213.3 600 208.7 642.8 205.5C685.7 202.3 728.3 200.7 771.2 203.3C814 206 857 213 878.5 216.5L900 220L900 301L878.5 301C857 301 814 301 771.2 301C728.3 301 685.7 301 642.8 301C600 301 557 301 514.2 301C471.3 301 428.7 301 385.8 301C343 301 300 301 257.2 301C214.3 301 171.7 301 128.8 301C86 301 43 301 21.5 301L0 301Z" fill="#fa7268"></path><path d="M0 232L21.5 226.3C43 220.7 86 209.3 128.8 204.3C171.7 199.3 214.3 200.7 257.2 205.7C300 210.7 343 219.3 385.8 221.7C428.7 224 471.3 220 514.2 218.5C557 217 600 218 642.8 215.5C685.7 213 728.3 207 771.2 208.8C814 210.7 857 220.3 878.5 225.2L900 230L900 301L878.5 301C857 301 814 301 771.2 301C728.3 301 685.7 301 642.8 301C600 301 557 301 514.2 301C471.3 301 428.7 301 385.8 301C343 301 300 301 257.2 301C214.3 301 171.7 301 128.8 301C86 301 43 301 21.5 301L0 301Z" fill="#ef5f67"></path><path d="M0 219L21.5 219.8C43 220.7 86 222.3 128.8 223.3C171.7 224.3 214.3 224.7 257.2 224.2C300 223.7 343 222.3 385.8 221.8C428.7 221.3 471.3 221.7 514.2 222.8C557 224 600 226 642.8 226.8C685.7 227.7 728.3 227.3 771.2 229.8C814 232.3 857 237.7 878.5 240.3L900 243L900 301L878.5 301C857 301 814 301 771.2 301C728.3 301 685.7 301 642.8 301C600 301 557 301 514.2 301C471.3 301 428.7 301 385.8 301C343 301 300 301 257.2 301C214.3 301 171.7 301 128.8 301C86 301 43 301 21.5 301L0 301Z" fill="#e34c67"></path><path d="M0 256L21.5 257.2C43 258.3 86 260.7 128.8 258.5C171.7 256.3 214.3 249.7 257.2 249C300 248.3 343 253.7 385.8 257C428.7 260.3 471.3 261.7 514.2 262.3C557 263 600 263 642.8 263C685.7 263 728.3 263 771.2 262.7C814 262.3 857 261.7 878.5 261.3L900 261L900 301L878.5 301C857 301 814 301 771.2 301C728.3 301 685.7 301 642.8 301C600 301 557 301 514.2 301C471.3 301 428.7 301 385.8 301C343 301 300 301 257.2 301C214.3 301 171.7 301 128.8 301C86 301 43 301 21.5 301L0 301Z" fill="#d53867"></path><path d="M0 285L21.5 282.2C43 279.3 86 273.7 128.8 271C171.7 268.3 214.3 268.7 257.2 270.8C300 273 343 277 385.8 278.7C428.7 280.3 471.3 279.7 514.2 278C557 276.3 600 273.7 642.8 274.3C685.7 275 728.3 279 771.2 281.3C814 283.7 857 284.3 878.5 284.7L900 285L900 301L878.5 301C857 301 814 301 771.2 301C728.3 301 685.7 301 642.8 301C600 301 557 301 514.2 301C471.3 301 428.7 301 385.8 301C343 301 300 301 257.2 301C214.3 301 171.7 301 128.8 301C86 301 43 301 21.5 301L0 301Z" fill="#c62368"></path></svg>